<svg xmlns="http://www.w3.org/2000/svg" viewBox="0 0 160 50">
  <path d="M24 8 C24 8 30 6 34 10 C38 14 36 22 30 24 L26 38 L18 38 L22 24 C22 24 28 22 28 16 C28 12 24 12 24 12 Z" fill="#002C8A"/>
  <path d="M30 6 C30 6 36 4 40 8 C44 12 42 20 36 22 L32 36 L24 36 L28 22 C28 22 34 20 34 14 C34 10 30 10 30 10 Z" fill="#009CDE"/>
  <text x="52" y="28" font-family="Arial,Helvetica,sans-serif" font-size="20" font-weight="700" fill="#002C8A">Pay</text>
  <text x="82" y="28" font-family="Arial,Helvetica,sans-serif" font-size="20" font-weight="700" fill="#009CDE">Pal</text>
</svg>